HIERARCHY
ROOT Hips
{
    OFFSET 0.000000 0.000000 0.000000
    CHANNELS 6 Xposition Yposition Zposition Zrotation Xrotation Yrotation
    JOINT Spine
    {
        OFFSET -0.000000 7.236184 0.000000
        CHANNELS 3 Zrotation Xrotation Yrotation
        JOINT Spine1
        {
            OFFSET -0.000000 20.420147 0.000000
            CHANNELS 3 Zrotation Xrotation Yrotation
            JOINT Neck
            {
                OFFSET -0.000000 20.336288 1.848754
                CHANNELS 3 Zrotation Xrotation Yrotation
                JOINT Head
                {
                    OFFSET -0.000000 12.354461 -1.764923
                    CHANNELS 3 Zrotation Xrotation Yrotation
                    End Site
                    {
                        OFFSET -0.000000 22.061537 0.000000
                    }
                }
            }
            JOINT LeftShoulder
            {
                OFFSET 3.573296 18.396038 -0.314103
                CHANNELS 3 Zrotation Xrotation Yrotation
                JOINT LeftArm
                {
                    OFFSET 10.880760 0.000000 0.000000
                    CHANNELS 3 Zrotation Xrotation Yrotation
                    JOINT LeftForeArm
                    {
                        OFFSET 27.185530 0.000000 0.000000
                        CHANNELS 3 Zrotation Xrotation Yrotation
                        JOINT LeftHand
                        {
                            OFFSET 27.825975 0.000000 0.000000
                            CHANNELS 3 Zrotation Xrotation Yrotation
                            End Site
                            {
                                OFFSET 13.236923 0.000000 0.000000
                            }
                        }
                    }
                }
            }
            JOINT RightShoulder
            {
                OFFSET -3.474926 18.396038 -0.314103
                CHANNELS 3 Zrotation Xrotation Yrotation
                JOINT RightArm
                {
                    OFFSET -10.880760 0.000000 0.000000
                    CHANNELS 3 Zrotation Xrotation Yrotation
                    JOINT RightForeArm
                    {
                        OFFSET -27.185530 0.000000 0.000000
                        CHANNELS 3 Zrotation Xrotation Yrotation
                        JOINT RightHand
                        {
                            OFFSET -27.825975 0.000000 0.000000
                            CHANNELS 3 Zrotation Xrotation Yrotation
                            End Site
                            {
                                OFFSET -13.236923 0.000000 0.000000
                            }
                        }
                    }
                }
            }
        }
    }
    JOINT LeftUpLeg
    {
        OFFSET 8.824615 0.000000 0.000000
        CHANNELS 3 Zrotation Xrotation Yrotation
        JOINT LeftLeg
        {
            OFFSET -0.000000 -35.111282 0.000000
            CHANNELS 3 Zrotation Xrotation Yrotation
            JOINT LeftFoot
            {
                OFFSET -0.000000 -42.324711 0.000000
                CHANNELS 3 Zrotation Xrotation Yrotation
                JOINT LeftToeBase
                {
                    OFFSET -0.000000 -5.735999 13.236923
                    CHANNELS 3 Zrotation Xrotation Yrotation
                    End Site
                    {
                        OFFSET -0.000000 0.000000 3.529846
                    }
                }
            }
        }
    }
    JOINT RightUpLeg
    {
        OFFSET -8.824615 0.000000 0.000000
        CHANNELS 3 Zrotation Xrotation Yrotation
        JOINT RightLeg
        {
            OFFSET -0.000000 -35.111282 0.000000
            CHANNELS 3 Zrotation Xrotation Yrotation
            JOINT RightFoot
            {
                OFFSET -0.000000 -42.324711 0.000000
                CHANNELS 3 Zrotation Xrotation Yrotation
                JOINT RightToeBase
                {
                    OFFSET -0.000000 -5.735999 13.236923
                    CHANNELS 3 Zrotation Xrotation Yrotation
                    End Site
                    {
                        OFFSET -0.000000 0.000000 3.529846
                    }
                }
            }
        }
    }
}
MOTION
Frames:    5
Frame Time:    0.008333
1.924005    83.280327    110.412300    -2.317579    -10.043772    -175.514572    -2.982102    -19.667305    -0.209272    0.203043    11.259682    0.287740    0.498649    3.783078    -4.301677    7.056007    -3.299233    -3.328891    0.079932    19.756176    -2.762585    -44.217941    43.505848    -39.694935    1.842121    -7.125976    -14.955862    17.882198    -6.545477    2.178823    7.688558    24.214350    -4.546501    41.701088    43.649174    33.495335    -5.916770    -9.845454    19.608606    -18.104364    -8.231597    -3.832338    3.822121    -13.397985    -4.953971    0.021462    13.182550    2.825964    -7.005115    -8.922451    -11.384065    -0.840562    -0.299489    0.932235    -13.145285    -2.378696    -5.454552    2.096004    0.898798    -6.591006    7.416137    -3.857375    -9.294482    -0.337713    0.183679    0.365171    
1.926067    83.279907    110.427032    -2.313729    -10.030195    -175.526352    -2.978158    -19.676231    -0.200517    0.198975    11.267721    0.296402    0.488754    3.792341    -4.306851    7.060423    -3.259298    -3.334755    0.080817    19.757532    -2.753392    -44.306129    43.478615    -39.600330    1.827816    -7.135779    -14.924778    17.886124    -6.557674    2.178265    7.689887    24.206585    -4.548354    41.706509    43.621826    33.521332    -5.912302    -9.857224    19.606339    -18.063301    -8.247986    -3.817796    3.826790    -13.395527    -4.958074    0.024208    13.186685    2.846869    -7.001317    -8.919271    -11.390581    -0.841212    -0.303554    0.932962    -13.140814    -2.373355    -5.488252    2.097556    0.888397    -6.543060    7.413620    -3.852135    -9.292263    -0.336236    0.177944    0.363577    
1.928155    83.279510    110.441780    -2.309862    -10.016952    -175.537766    -2.974110    -19.685366    -0.191810    0.194643    11.276114    0.305123    0.478997    3.801448    -4.312197    7.064625    -3.220159    -3.340812    0.081931    19.758652    -2.744311    -44.395500    43.450626    -39.505196    1.813819    -7.146398    -14.892997    17.888884    -6.570415    2.179320    7.691047    24.199224    -4.550258    41.712074    43.594578    33.547562    -5.908325    -9.869770    19.605289    -18.021719    -8.265101    -3.802729    3.831270    -13.393604    -4.963210    0.026915    13.191047    2.868580    -6.997188    -8.915939    -11.397147    -0.841804    -0.307757    0.933625    -13.136368    -2.368107    -5.521028    2.099307    0.877795    -6.496435    7.411083    -3.846881    -9.290061    -0.334798    0.172028    0.362024    
1.930271    83.279144    110.456314    -2.305962    -10.004424    -175.548309    -2.969756    -19.694540    -0.183252    0.189581    11.284929    0.313814    0.469256    3.809868    -4.317948    7.069430    -3.182625    -3.347093    0.083485    19.759459    -2.735278    -44.485298    43.421677    -39.410915    1.800230    -7.158486    -14.860537    17.889372    -6.584146    2.183502    7.692255    24.192308    -4.552016    41.717949    43.568104    33.573112    -5.905202    -9.883635    19.606525    -17.979412    -8.283429    -3.786776    3.835485    -13.392554    -4.969982    0.029535    13.195781    2.890791    -6.992547    -8.912526    -11.403339    -0.842334    -0.312353    0.934221    -13.131929    -2.362954    -5.551568    2.101287    0.866864    -6.452944    7.408607    -3.841603    -9.287960    -0.333466    0.165991    0.360587    
1.932419    83.278778    110.470703    -2.302024    -9.992782    -175.557648    -2.965104    -19.703688    -0.174695    0.183834    11.294412    0.322377    0.459359    3.817369    -4.324302    7.074862    -3.147397    -3.353757    0.085363    19.759506    -2.726334    -44.576607    43.391239    -39.316475    1.786948    -7.172960    -14.827049    17.886869    -6.599624    2.191838    7.693545    24.185928    -4.554016    41.723606    43.542961    33.598610    -5.903576    -9.899587    19.610764    -17.935913    -8.303671    -3.769494    3.839370    -13.392912    -4.979127    0.031921    13.201358    2.913756    -6.987193    -8.909055    -11.408874    -0.842677    -0.317826    0.934611    -13.127566    -2.357910    -5.579206    2.103588    0.855451    -6.413419    7.406212    -3.836305    -9.286139    -0.332241    0.159719    0.359266    
